HIERARCHY
ROOT Hips
{
	OFFSET 0.00000 0.00000 0.00000
	CHANNELS 6 Xposition Yposition Zposition Zrotation Yrotation Xrotation 
	JOINT LHipJoint
	{
		OFFSET 0 0 0
		CHANNELS 3 Zrotation Yrotation Xrotation
		JOINT LeftUpLeg
		{
			OFFSET 1.58895 -1.83665 0.71753
			CHANNELS 3 Zrotation Yrotation Xrotation
			JOINT LeftLeg
			{
				OFFSET 2.50528 -6.88321 0.00000
				CHANNELS 3 Zrotation Yrotation Xrotation
				JOINT LeftFoot
				{
					OFFSET 2.63244 -7.23257 0.00000
					CHANNELS 3 Zrotation Yrotation Xrotation
					JOINT LeftToeBase
					{
						OFFSET 0.23691 -0.65090 1.72750
						CHANNELS 3 Zrotation Yrotation Xrotation
						End Site
						{
							OFFSET 0.00000 -0.00000 0.92561
						}
					}
				}
			}
		}
	}
	JOINT RHipJoint
	{
		OFFSET 0 0 0
		CHANNELS 3 Zrotation Yrotation Xrotation
		JOINT RightUpLeg
		{
			OFFSET -1.51435 -1.83665 0.71753
			CHANNELS 3 Zrotation Yrotation Xrotation
			JOINT RightLeg
			{
				OFFSET -2.54551 -6.99375 0.00000
				CHANNELS 3 Zrotation Yrotation Xrotation
				JOINT RightFoot
				{
					OFFSET -2.66027 -7.30903 0.00000
					CHANNELS 3 Zrotation Yrotation Xrotation
					JOINT RightToeBase
					{
						OFFSET -0.22981 -0.63138 2.03959
						CHANNELS 3 Zrotation Yrotation Xrotation
						End Site
						{
							OFFSET -0.00000 -0.00000 1.07060
						}
					}
				}
			}
		}
	}
	JOINT LowerBack
	{
		OFFSET 0 0 0
		CHANNELS 3 Zrotation Yrotation Xrotation
		JOINT Spine
		{
			OFFSET -0.02651 1.86275 -0.11152
			CHANNELS 3 Zrotation Yrotation Xrotation
			JOINT Spine1
			{
				OFFSET 0.01019 1.86224 0.04087
				CHANNELS 3 Zrotation Yrotation Xrotation
				JOINT Neck
				{
					OFFSET 0 0 0
					CHANNELS 3 Zrotation Yrotation Xrotation
					JOINT Neck1
					{
						OFFSET -0.01926 1.80512 0.08867
						CHANNELS 3 Zrotation Yrotation Xrotation
						JOINT Head
						{
							OFFSET 0.05516 1.76451 -0.38475
							CHANNELS 3 Zrotation Yrotation Xrotation
							End Site
							{
								OFFSET 0.01592 1.82587 -0.14001
							}
						}
					}
				}
				JOINT LeftShoulder
				{
					OFFSET 0 0 0
					CHANNELS 3 Zrotation Yrotation Xrotation
					JOINT LeftArm
					{
						OFFSET 3.47116 1.51376 0.14491
						CHANNELS 3 Zrotation Yrotation Xrotation
						JOINT LeftForeArm
						{
							OFFSET 4.78095 -0.00000 0.00000
							CHANNELS 3 Zrotation Yrotation Xrotation
							JOINT LeftHand
							{
								OFFSET 3.58615 -0.00000 -0.00000
								CHANNELS 3 Zrotation Yrotation Xrotation
								JOINT LeftFingerBase
								{
									OFFSET 0 0 0
									CHANNELS 3 Zrotation Yrotation Xrotation
									JOINT LeftHandIndex1
									{
										OFFSET 0.65981 -0.00000 0.00000
										CHANNELS 3 Zrotation Yrotation Xrotation
										End Site
										{
											OFFSET 0.53196 -0.00000 0.00000
										}
									}
								}
								JOINT LThumb
								{
									OFFSET 0 0 0
									CHANNELS 3 Zrotation Yrotation Xrotation
									End Site
									{
										OFFSET 0.54008 -0.00000 0.54008
									}
								}
							}
						}
					}
				}
				JOINT RightShoulder
				{
					OFFSET 0 0 0
					CHANNELS 3 Zrotation Yrotation Xrotation
					JOINT RightArm
					{
						OFFSET -3.31725 1.61216 0.35156
						CHANNELS 3 Zrotation Yrotation Xrotation
						JOINT RightForeArm
						{
							OFFSET -4.48913 -0.00000 0.00000
							CHANNELS 3 Zrotation Yrotation Xrotation
							JOINT RightHand
							{
								OFFSET -3.70510 -0.00000 0.00000
								CHANNELS 3 Zrotation Yrotation Xrotation
								JOINT RightFingerBase
								{
									OFFSET 0 0 0
									CHANNELS 3 Zrotation Yrotation Xrotation
									JOINT RightHandIndex1
									{
										OFFSET -0.44914 -0.00000 0.00000
										CHANNELS 3 Zrotation Yrotation Xrotation
										End Site
										{
											OFFSET -0.36211 -0.00000 0.00000
										}
									}
								}
								JOINT RThumb
								{
									OFFSET 0 0 0
									CHANNELS 3 Zrotation Yrotation Xrotation
									End Site
									{
										OFFSET -0.36763 -0.00000 0.36763
									}
								}
							}
						}
					}
				}
			}
		}
	}
}
MOTION
Frames: 14
Frame Time: .0083333
-0.5196 18.7971 5.4925 -1.1479 2.2634 6.3948 0.0000 0.0000 0.0000 -12.1818 -6.2624 -15.4222 2.1030 9.0773 26.0375 0.8026 -1.1978 -16.5644 8.9825 -16.7965 -56.0297 0.0000 0.0000 0.0000 14.6858 -1.7123 0.4804 0.0000 -0.0000 0.0000 -0.5314 -8.4640 -19.3689 -0.3844 3.9814 -11.0245 0.7602 -0.7416 22.1912 -0.1611 -0.7957 9.4692 -0.4195 -0.3651 -2.0742 -1.8287 -1.6611 -22.1855 4.0268 -2.7206 20.9740 1.3288 -0.8877 10.4788 0.0000 -0.0000 0.0000 -96.3796 -13.4225 109.3858 140.7375 -47.6268 -102.1075 -0.0000 0.0000 -36.6996 9.1971 -17.0817 -2.7229 -7.1250 0.0000 -0.0000 -12.3556 12.9779 9.4936 0.0000 -0.0000 0.0000 80.5175 0.1376 91.1824 -135.0612 50.7385 -97.8086 0.0000 -0.0000 -8.6612 0.2929 -25.1240 -0.1243 7.1250 -0.0000 -0.0000 30.3512 -52.4083 -5.9838
-0.5204 18.7818 5.4823 -1.1618 2.1633 6.2620 0.0000 0.0000 0.0000 -12.1863 -6.0922 -15.4398 2.1288 9.1294 26.2009 0.8230 -1.3442 -16.7399 8.9814 -16.7957 -56.0256 0.0000 0.0000 0.0000 14.6985 -1.6365 0.6033 0.0000 0.0000 -0.0000 -0.5475 -8.3711 -19.4540 -0.4209 4.1640 -11.5386 0.7676 -0.7258 22.3825 -0.1916 -0.7742 9.5209 -0.4599 -0.3537 -2.1131 -1.8052 -1.6636 -22.3339 4.0842 -2.7463 20.9868 1.3414 -0.8884 10.5126 0.0000 -0.0000 0.0000 -96.3574 -13.1840 109.4054 140.8639 -47.5497 -102.2009 -0.0000 0.0000 -36.6041 7.8653 -14.5726 -1.9907 -7.1250 0.0000 -0.0000 -13.3112 15.5323 9.5247 0.0000 -0.0000 0.0000 80.5175 0.1376 91.1824 -135.0612 50.7385 -97.8086 0.0000 -0.0000 -8.6612 0.2929 -25.1240 -0.1243 7.1250 -0.0000 -0.0000 30.3512 -52.4083 -5.9838
-0.5196 18.7634 5.4722 -1.1163 2.0613 6.1293 0.0000 0.0000 0.0000 -12.2620 -5.9994 -15.4562 2.1638 9.1992 26.4205 0.8527 -1.4420 -17.0217 8.9662 -16.7859 -55.9733 0.0000 0.0000 0.0000 14.6484 -1.5684 0.7344 0.0000 0.0000 -0.0000 -0.5676 -8.2785 -19.5823 -0.4472 4.2903 -11.8949 0.7559 -0.6976 22.5160 -0.2337 -0.7415 9.5753 -0.5052 -0.3370 -2.1199 -1.7601 -1.6674 -22.3548 4.1178 -2.7713 20.8778 1.3413 -0.8929 10.4776 -0.0000 0.0000 0.0000 -96.3760 -13.0104 109.4493 141.1396 -47.3801 -102.4040 -0.0000 0.0000 -36.4525 6.7384 -12.4392 -1.4579 -7.1250 0.0000 -0.0000 -14.1808 17.6738 9.5028 -0.0000 0.0000 0.0000 80.5175 0.1376 91.1824 -135.0612 50.7385 -97.8086 0.0000 -0.0000 -8.6612 0.2929 -25.1240 -0.1243 7.1250 -0.0000 -0.0000 30.3512 -52.4083 -5.9838
-0.5188 18.7458 5.4598 -1.0881 1.9712 6.0507 0.0000 0.0000 0.0000 -12.3063 -5.9437 -15.5472 2.2021 9.2749 26.6591 0.8743 -1.5476 -17.2147 8.9171 -16.7540 -55.8029 0.0000 0.0000 0.0000 14.6223 -1.4878 0.7875 0.0000 0.0000 -0.0000 -0.5798 -8.2432 -19.6781 -0.4449 4.2794 -11.8641 0.8246 -0.7009 22.5343 -0.2980 -0.7352 9.6103 -0.6146 -0.3307 -2.0922 -1.8037 -1.6798 -22.2925 4.2412 -2.8014 20.7624 1.3873 -0.8969 10.4282 -0.0000 0.0000 0.0000 -96.3088 -12.8602 109.3874 141.5606 -47.1176 -102.7132 -0.0000 0.0000 -36.3019 6.0357 -11.2340 -1.1801 -7.1250 0.0000 -0.0000 -14.7428 18.8751 9.4991 -0.0000 0.0000 0.0000 80.5175 0.1376 91.1824 -135.0612 50.7385 -97.8086 0.0000 -0.0000 -8.6612 0.2929 -25.1240 -0.1243 7.1250 -0.0000 -0.0000 30.3512 -52.4083 -5.9838
-0.5199 18.7327 5.4469 -1.0775 1.8631 5.9953 0.0000 0.0000 0.0000 -12.3315 -5.8788 -15.6693 2.2390 9.3471 26.8873 0.8845 -1.5296 -17.3222 8.9324 -16.7640 -55.8559 0.0000 0.0000 0.0000 14.6149 -1.3776 0.8107 0.0000 -0.0000 0.0000 -0.5779 -8.2786 -19.6894 -0.4380 4.2468 -11.7720 0.9449 -0.7040 22.4839 -0.3995 -0.7209 9.6343 -0.7954 -0.3183 -2.0433 -1.9120 -1.7097 -22.2326 4.5037 -2.8738 20.7570 1.4884 -0.9070 10.4245 0.0000 0.0000 0.0000 -96.1415 -12.8346 109.2846 142.0202 -46.8264 -103.0492 -0.0000 0.0000 -36.1777 5.6925 -10.9112 -1.0809 -7.1250 0.0000 -0.0000 -15.0034 19.1992 9.5667 0.0000 0.0000 0.0000 80.5175 0.1376 91.1824 -135.0612 50.7385 -97.8086 0.0000 -0.0000 -8.6612 0.2929 -25.1240 -0.1243 7.1250 -0.0000 -0.0000 30.3512 -52.4083 -5.9838
-0.5193 18.7262 5.4372 -1.0435 1.6896 5.9729 0.0000 0.0000 0.0000 -12.3889 -5.8385 -15.7877 2.2702 9.4076 27.0789 0.8933 -1.3705 -17.4514 8.9698 -16.7883 -55.9857 0.0000 0.0000 0.0000 14.5537 -1.1979 0.8136 0.0000 -0.0000 0.0000 -0.5721 -8.3343 -19.6787 -0.4358 4.2363 -11.7423 1.0337 -0.6599 22.3288 -0.4916 -0.6533 9.6714 -0.9614 -0.2803 -1.9265 -1.9653 -1.7399 -22.1934 4.6471 -2.9373 20.8131 1.5395 -0.9223 10.4437 0.0000 0.0000 0.0000 -95.9903 -13.0445 109.2701 142.4992 -46.5175 -103.3976 -0.0000 0.0000 -36.0917 5.4428 -10.7883 -1.0218 -7.1250 0.0000 -0.0000 -15.1852 19.3267 9.6463 0.0000 0.0000 0.0000 80.5175 0.1376 91.1824 -135.0612 50.7385 -97.8086 0.0000 -0.0000 -8.6612 0.2929 -25.1240 -0.1243 7.1250 -0.0000 -0.0000 30.3512 -52.4083 -5.9838
-0.5168 18.7241 5.4292 -1.0178 1.4815 5.9989 0.0000 0.0000 0.0000 -12.4261 -5.7812 -15.9170 2.2892 9.4441 27.1948 0.8926 -1.2650 -17.4721 8.9330 -16.7644 -55.8581 0.0000 0.0000 0.0000 14.4798 -0.9683 0.7659 0.0000 -0.0000 0.0000 -0.5662 -8.3630 -19.6433 -0.4113 4.1169 -11.4057 1.1274 -0.5866 22.1434 -0.5345 -0.5461 9.7017 -1.0864 -0.2235 -1.7999 -2.0909 -1.8046 -22.2708 4.7208 -3.0097 20.9730 1.5771 -0.9533 10.5223 0.0000 0.0000 0.0000 -95.9996 -13.3622 109.3388 142.9006 -46.2544 -103.6882 -0.0000 0.0000 -36.1801 5.2296 -10.2959 -0.9372 -7.1250 0.0000 -0.0000 -15.3729 19.8102 9.6015 0.0000 0.0000 0.0000 80.5175 0.1376 91.1824 -135.0612 50.7385 -97.8086 0.0000 -0.0000 -8.6612 0.2929 -25.1240 -0.1243 7.1250 -0.0000 -0.0000 30.3512 -52.4083 -5.9838
-0.5150 18.7258 5.4242 -0.9796 1.1785 6.0045 0.0000 0.0000 0.0000 -12.4795 -5.5744 -15.9611 2.2906 9.4468 27.2033 0.8874 -1.1926 -17.4399 8.9198 -16.7559 -55.8125 0.0000 0.0000 0.0000 14.3953 -0.6573 0.7725 0.0000 0.0000 -0.0000 -0.5483 -8.4549 -19.5385 -0.4111 4.1161 -11.4035 1.2122 -0.4845 22.0555 -0.6134 -0.4046 9.6998 -1.2517 -0.1500 -1.7551 -2.3653 -1.9269 -22.4852 4.9807 -3.1679 21.3448 1.6953 -1.0078 10.7143 -0.0000 -0.0000 0.0000 -96.0146 -13.5343 109.3150 143.1976 -46.0571 -103.9024 -0.0000 0.0000 -36.5061 4.7023 -9.3380 -0.7647 -7.1250 0.0000 -0.0000 -15.8247 20.7484 9.5575 -0.0000 -0.0000 0.0000 80.5175 0.1376 91.1824 -135.0612 50.7385 -97.8086 0.0000 -0.0000 -8.6612 0.2929 -25.1240 -0.1243 7.1250 -0.0000 -0.0000 30.3512 -52.4083 -5.9838
-0.5134 18.7320 5.4262 -0.9103 0.6832 5.8961 0.0000 0.0000 0.0000 -12.5950 -5.1376 -15.7651 2.2641 9.3957 27.0411 0.8839 -1.0821 -17.4357 8.9596 -16.7817 -55.9504 0.0000 0.0000 0.0000 14.2726 -0.2002 0.9600 0.0000 -0.0000 0.0000 -0.5226 -8.6266 -19.4248 -0.4549 4.3267 -11.9976 1.2227 -0.2865 22.0791 -0.7333 -0.1560 9.6969 -1.4426 -0.0253 -1.7622 -2.7322 -2.1122 -22.6691 5.4142 -3.4313 21.7593 1.8768 -1.0954 10.9293 -0.0000 -0.0000 0.0000 -95.9121 -13.5422 109.2235 143.5048 -45.8507 -104.1232 -0.0000 0.0000 -37.0159 3.8514 -8.2416 -0.5529 -7.1250 0.0000 -0.0000 -16.5306 21.8203 9.5993 -0.0000 -0.0000 0.0000 80.5175 0.1376 91.1824 -135.0612 50.7385 -97.8086 0.0000 -0.0000 -8.6612 0.2929 -25.1240 -0.1243 7.1250 -0.0000 -0.0000 30.3512 -52.4083 -5.9838
-0.5093 18.7404 5.4342 -0.7033 0.0960 5.6650 0.0000 0.0000 0.0000 -12.8836 -4.6674 -15.3187 2.2191 9.3083 26.7645 0.8824 -0.9584 -17.4555 8.9733 -16.7905 -55.9978 0.0000 0.0000 0.0000 13.9883 0.2943 1.3068 0.0000 -0.0000 0.0000 -0.5087 -8.7533 -19.3953 -0.4812 4.4483 -12.3415 1.0974 -0.0119 22.1813 -0.8798 0.1638 9.7317 -1.6016 0.1317 -1.7638 -3.0652 -2.3309 -22.7701 5.8552 -3.7502 22.0116 2.0456 -1.2069 11.0752 -0.0000 -0.0000 0.0000 -95.8570 -13.3948 109.1684 143.6673 -45.7406 -104.2397 -0.0000 0.0000 -37.6356 3.1172 -7.5659 -0.4108 -7.1250 0.0000 -0.0000 -17.1225 22.4764 9.7051 -0.0000 -0.0000 0.0000 80.5175 0.1376 91.1824 -135.0612 50.7385 -97.8086 0.0000 -0.0000 -8.6612 0.2929 -25.1240 -0.1243 7.1250 -0.0000 -0.0000 30.3512 -52.4083 -5.9838
-0.5240 18.7498 5.4616 -0.2862 -0.0195 5.1454 0.0000 0.0000 0.0000 -13.3137 -4.1609 -14.5176 2.1679 9.2075 26.4465 0.8706 -1.2560 -17.2527 8.9753 -16.7918 -56.0047 0.0000 0.0000 0.0000 13.6088 0.1760 2.0240 0.0000 -0.0000 0.0000 -0.5396 -8.6128 -19.5920 -0.4719 4.4057 -12.2209 0.6321 0.1862 22.3947 -0.9517 0.3255 9.8959 -1.4518 0.2021 -1.6882 -3.2624 -2.5095 -22.9012 6.1063 -4.0053 22.1796 2.1316 -1.3021 11.1872 -0.0000 0.0000 0.0000 -95.9154 -13.1745 109.2386 143.6047 -45.7832 -104.1948 -0.0000 0.0000 -38.6074 2.8438 -7.4489 -0.3690 -7.1250 0.0000 -0.0000 -17.3290 22.5908 9.7856 -0.0000 0.0000 0.0000 80.5175 0.1376 91.1824 -135.0612 50.7385 -97.8086 0.0000 -0.0000 -8.6612 0.2929 -25.1240 -0.1243 7.1250 -0.0000 -0.0000 30.3512 -52.4083 -5.9838
-0.5165 18.7570 5.4752 0.1166 -0.4900 5.0077 0.0000 0.0000 0.0000 -13.8235 -3.7026 -14.1799 2.1191 9.1099 26.1397 0.8623 -1.2169 -17.1791 8.9824 -16.7964 -56.0293 0.0000 0.0000 0.0000 13.1272 0.5555 2.2825 0.0000 -0.0000 0.0000 -0.5545 -8.6268 -19.7608 -0.4774 4.4312 -12.2929 0.3254 0.4227 22.3392 -1.0988 0.5608 9.9392 -1.4878 0.3131 -1.6081 -3.3351 -2.6065 -23.0993 6.1410 -4.1320 22.3800 2.1382 -1.3547 11.3095 -0.0000 -0.0000 0.0000 -96.0084 -13.0264 109.4782 143.4419 -45.8932 -104.0781 -0.0000 0.0000 -39.8924 3.0934 -7.4962 -0.4040 -7.1250 0.0000 -0.0000 -17.1475 22.5436 9.6929 -0.0000 -0.0000 0.0000 80.5175 0.1376 91.1824 -135.0612 50.7385 -97.8086 0.0000 -0.0000 -8.6612 0.2929 -25.1240 -0.1243 7.1250 -0.0000 -0.0000 30.3512 -52.4083 -5.9838
-0.4905 18.7611 5.4721 0.3712 -1.2874 5.2668 0.0000 0.0000 0.0000 -14.2520 -3.4121 -14.3273 2.0810 9.0327 25.8977 0.8637 -0.7658 -17.3221 9.0103 -16.8144 -56.1258 0.0000 0.0000 0.0000 12.6982 1.4181 2.0439 0.0000 0.0000 -0.0000 -0.5446 -8.7776 -19.7963 -0.4860 4.4704 -12.4039 0.3053 0.6249 22.0012 -1.3414 0.8028 9.8436 -1.7866 0.4362 -1.5338 -3.2676 -2.5864 -23.2707 6.0633 -4.1132 22.5548 2.1034 -1.3449 11.4033 0.0000 0.0000 0.0000 -96.0228 -12.8685 109.6616 143.2412 -46.0280 -103.9338 -0.0000 0.0000 -40.7292 3.1911 -7.4845 -0.4161 -7.1250 0.0000 -0.0000 -17.0800 22.5539 9.6469 0.0000 0.0000 0.0000 80.5175 0.1376 91.1824 -135.0612 50.7385 -97.8086 0.0000 -0.0000 -8.6612 0.2929 -25.1240 -0.1243 7.1250 -0.0000 -0.0000 30.3512 -52.4083 -5.9838
-0.4835 18.7626 5.4786 0.5181 -1.3410 5.3162 0.0000 0.0000 0.0000 -14.4301 -3.4215 -14.2778 2.0646 8.9993 25.7933 0.8617 -0.7448 -17.3083 9.0266 -16.8248 -56.1820 0.0000 0.0000 0.0000 12.5352 1.4582 2.0290 0.0000 -0.0000 0.0000 -0.5522 -8.7256 -19.8271 -0.4798 4.4419 -12.3233 0.3152 0.5215 21.7645 -1.4469 0.6688 9.8381 -1.8711 0.3732 -1.4250 -3.0809 -2.4387 -23.4055 5.8139 -3.9085 22.6757 2.0151 -1.2652 11.4525 -0.0000 0.0000 0.0000 -96.0444 -12.7040 109.7176 143.0655 -46.1451 -103.8072 -0.0000 0.0000 -41.0727 2.8392 -7.3840 -0.3652 -7.1250 0.0000 -0.0000 -17.3400 22.6533 9.7663 -0.0000 0.0000 0.0000 80.5175 0.1376 91.1824 -135.0612 50.7385 -97.8086 0.0000 -0.0000 -8.6612 0.2929 -25.1240 -0.1243 7.1250 -0.0000 -0.0000 30.3512 -52.4083 -5.9838
